<svg xmlns="http://www.w3.org/2000/svg" version="1.1" xmlns:xlink="http://www.w3.org/1999/xlink" xmlns:svgjs="http://svgjs.com/svgjs" width="155" height="155"><svg id="SvgjsSvg1000" data-name="Layer 2" xmlns="http://www.w3.org/2000/svg" viewBox="0 0 155 155">
  <defs>
    <style>
      .cls-1 {
        fill: #F2F0E5;
      }
	  .cls-2 {
		fill: #1C1B1A;
	  }
    </style><style class="darkreader darkreader--sync" media="screen"></style>
  </defs>
  <path class="cls-1" d="m80.72,95.78c-6.64-6.24-4.71-18.37,2.56-23.86s17.81-5.01,25.87-.76c10.65,5.62,17.7,17.46,17.57,29.49-.13,12.04-7.44,23.72-18.2,29.11-8.37,4.19-18.06,4.63-27.42,4.72-8.01.08-16.27-.08-23.59-3.32-10.64-4.7-20.8-13.82-25-24.67-5.25-13.56-6.55-30.9-3-45,3.55-14.1,15.4-26.19,28.25-33,5.65-3,11.87-4.78,18.12-6.14,6.98-1.52,14.37-2.53,21.19-.37,8.78,2.77,17.71,10.73,20.44,19.52,3.49,11.24,1.45,21.88-6,31"></path>
  <path class="cls-2" d="m82.85,93.66c-.97-.94-1.33-1.38-1.99-2.62-.49-.93-.83-1.99-1.08-3.38-.11-.61-.04-.27-.03-.13-.04-.31-.06-.63-.08-.94-.03-.63-.03-1.27,0-1.9.07-1.09.28-2.22.72-3.61.36-1.11.6-1.67,1.26-2.82.75-1.29,1.21-1.91,2.27-2.95,1.83-1.79,4.26-3.03,6.82-3.73,11.28-3.06,22.99,3.89,28.71,13.61,6.05,10.26,5.42,22.62-1.38,32.41-3.22,4.63-7.85,8.42-13.17,10.53-6.46,2.56-13.43,3.14-20.31,3.31s-14.41.39-21.31-1.42c-5.96-1.56-11.56-4.89-16.24-8.86s-8.71-8.78-11.24-14.41-4.01-12.26-4.74-18.47c-1.5-12.7-.6-26.46,6.35-37.48s17.38-18.81,29.09-22.79c3.54-1.2,7.17-2.12,10.82-2.89s7.14-1.33,10.79-1.36c6.4-.05,12.2,2.1,17.2,6.04s8.39,8.71,9.86,14.59,1.26,12.33-1.09,18.11c-1.15,2.83-2.81,5.52-4.73,7.9-1.02,1.26-1.23,3.01,0,4.24,1.05,1.05,3.22,1.27,4.24,0,4.76-5.89,7.88-12.72,8.45-20.33.53-7.07-1.12-14.75-5.09-20.67s-9.56-10.58-15.98-13.33c-7.68-3.3-15.87-2.84-23.91-1.24s-15.56,3.82-22.52,7.79c-5.98,3.41-11.53,7.78-16.16,12.88s-8.59,11.23-10.88,17.91-3.08,14.44-3.02,21.66,1.11,15.18,3.22,22.43,5.1,13.11,9.86,18.55,10.4,9.63,16.67,12.7c7.24,3.54,15.06,4.47,23.04,4.54,7.79.07,15.78-.04,23.41-1.8,7.02-1.62,13.52-4.97,18.56-10.17,9.57-9.87,13.14-24.71,8.12-37.64-4.99-12.87-17.07-22.99-31.28-22.99-6.67,0-13.67,2.49-17.9,7.85-3.85,4.88-5.52,11.49-3.99,17.58.72,2.87,2.25,5.53,4.38,7.58,2.78,2.68,7.03-1.56,4.24-4.24h0Z"></path>
</svg><style>@media (prefers-color-scheme: light) { :root { filter: none; } }
@media (prefers-color-scheme: dark) { :root { filter: none; } }
</style></svg>