<?xml version="1.0" encoding="UTF-8"?>
<svg xmlns="http://www.w3.org/2000/svg" viewBox="0 0 387.28 128.52">
  <defs>
    <style>
      .cls-1 {
        fill: #fafafa;
      }
    </style>
  </defs>
  <g id="G">
    <g>
      <path class="cls-1" d="m339.62,86.82c-1.73-.18-2.98-1.71-3.87-3.2-3.56-5.95-4.54-13.83-.94-19.75,2.53-4.16,7.01-6.9,11.75-8.03s9.72-.82,14.5.08c4.64.87,9.27,2.33,13.07,5.12,5.44,4,8.72,10.5,9.75,17.18s0,13.53-1.94,20.01c-1.59,5.32-3.84,10.56-7.57,14.66-7.91,8.68-20.7,10.62-32.43,11.09-8.92.35-17.98.14-26.56-2.3s-16.73-7.34-21.66-14.78c-4.72-7.12-6.15-15.92-6.65-24.45-.64-10.93.07-21.97,2.51-32.65,2.71-11.86,8.13-23.94,18.46-30.37,7.41-4.62,16.45-5.77,25.19-5.99,12.76-.32,26.06,1.28,36.85,8.1,3.16,2,6.12,4.5,7.93,7.77,1.88,3.4,2.38,7.41,2.18,11.29-.34,6.67-2.69,13.22-6.66,18.58"/>
      <path d="m340.41,83.92c-1.13-.18-1.64-1.06-2.28-2.17-.75-1.3-1.34-2.65-1.77-4.09-.8-2.66-1.12-5.57-.54-8.26,1.23-5.73,6.02-9.37,11.52-10.69,6.43-1.55,13.85-.32,19.96,2,5.54,2.1,9.73,6.41,11.95,11.88,2.48,6.12,2.46,12.93,1.17,19.33s-3.37,13.2-7.62,18.2c-7.6,8.94-20.27,10.45-31.35,10.87-13.19.49-27.18-.39-38.21-8.42-4.83-3.52-8.4-8.45-10.36-14.08-2.17-6.24-2.77-12.86-2.98-19.42-.24-7.45.12-14.95,1.34-22.31,1.03-6.19,2.52-12.49,5.06-18.22,2.31-5.21,5.36-10.04,9.63-13.83,4.69-4.17,10.73-6.34,16.89-7.39s12.96-1.12,19.37-.75,13.03,1.53,19.15,3.9c5.39,2.08,11.52,5.41,14.26,10.74s1.72,12.64-.23,18.18c-1.05,2.98-2.6,5.74-4.46,8.29-.96,1.31-.22,3.35,1.08,4.1,1.52.89,3.15.24,4.1-1.08,4.41-6.04,6.93-13.48,7.1-20.96.09-3.84-.55-7.7-2.22-11.18s-4.31-5.96-7.24-8.14c-11.76-8.76-27.59-10.46-41.81-9.95-7.54.27-15.13,1.33-22.03,4.54-6.22,2.89-11.24,7.76-14.97,13.46s-6.01,11.78-7.66,18.12c-2.03,7.82-3.07,15.95-3.35,24.02-.51,14.58.41,31.48,11.05,42.62s26.1,13.87,40.62,13.88c13.26.01,28.46-.92,38.9-10.13,5.54-4.89,8.63-11.88,10.61-18.86,2.17-7.66,3.09-15.96,1.04-23.76-1.77-6.76-5.78-12.97-11.73-16.76-3.16-2.01-6.81-3.3-10.45-4.14-3.92-.91-8.02-1.48-12.06-1.34-7.43.27-14.8,3.18-19.16,9.43s-3.85,14.17-1.03,20.72c1.33,3.09,3.46,6.86,7.11,7.45,1.6.26,3.23-.41,3.69-2.1.39-1.43-.49-3.43-2.1-3.69h0Z"/>
    </g>
  </g>
  <g id="U">
    <g>
      <path class="cls-1" d="m258.01,31.13c5.41-8.8,15.2-14.98,25.52-15.21s20.73,5.94,24.74,15.46c1.87,4.44,2.35,9.32,2.82,14.12,1.26,12.95,2.49,26.22-.78,38.81-1.82,6.99-4.97,13.54-8.22,19.99-1.73,3.43-4.11,5.79-7.09,8.22-2.49,2.03-5.06,4.29-8.11,5.33-5.04,1.71-10.16,3.32-15.45,3.83-6.64.65-13.33-.45-19.85-1.88-8.17-1.79-16.23-4.1-24.1-6.92-4.49-1.61-9.03-3.45-12.56-6.66-3.37-3.07-5.61-7.22-7.08-11.54-3.05-8.97-2.97-18.76-1.25-28.07s5-18.25,8.3-27.13c2.19-5.9,4.42-11.85,7.91-17.09s8.4-9.77,14.42-11.59c5.8-1.76,12.07-.88,17.97.54,5.4,1.3,11.05,3.28,14.35,7.74"/>
      <path d="m260.6,32.64c5.18-8.32,14.59-14.06,24.39-13.71s18.48,6.51,21.3,15.79c1.79,5.88,2,12.3,2.5,18.39.53,6.41.85,12.86.4,19.29s-1.84,12.43-4.13,18.33c-1.1,2.84-2.38,5.61-3.71,8.34-1.17,2.4-2.26,4.96-3.96,7.02s-3.99,3.9-6.15,5.65-4.3,2.94-6.92,3.81c-6.07,2-12.13,3.51-18.57,3.29s-12.77-1.7-18.99-3.25-12.68-3.51-18.86-5.74c-5.04-1.82-10.12-4.08-13.38-8.53s-5.07-10.4-5.74-15.97c-1.5-12.53,1.83-24.87,5.93-36.6,2.04-5.82,4.06-11.74,6.61-17.36,2.33-5.13,5.25-9.99,9.57-13.69s9.35-5.09,14.83-4.84c3,.13,5.95.71,8.86,1.42,2.41.59,4.86,1.26,7.06,2.34,2.01.98,3.97,2.22,5.31,3.98.98,1.29,2.59,1.96,4.1,1.08,1.27-.74,2.06-2.81,1.08-4.1-3.73-4.89-9.21-7.34-15.04-8.84-6.53-1.69-13.62-2.79-20.23-.94-12.93,3.62-19.37,16.38-23.76,27.96-4.89,12.88-9.87,26.1-10.6,40-.68,12.77,2.42,27.98,13.91,35.37,5.54,3.56,12.28,5.49,18.52,7.42,6.74,2.08,13.6,3.87,20.54,5.12s14.24,1.69,21.39.22c3.37-.7,6.67-1.73,9.93-2.82s5.97-2.87,8.68-5.06c2.27-1.83,4.55-3.67,6.4-5.94,2.07-2.54,3.44-5.43,4.85-8.36,3-6.19,5.71-12.59,7.12-19.35s1.73-14.05,1.46-21.11-.86-13.84-1.76-20.68c-.84-6.44-2.68-12.4-6.96-17.41-3.64-4.25-8.66-7.33-13.98-8.95-11.27-3.43-23.49.54-31.76,8.63-2.07,2.03-3.89,4.34-5.42,6.8-2.05,3.29,3.14,6.3,5.18,3.03h0Z"/>
    </g>
  </g>
  <g id="N">
    <g>
      <path class="cls-1" d="m173.31,102.86c1.68,4.65,3.77,9.36,7.54,12.57,3.78,3.22,8.92,4.55,13.89,4.48s9.84-1.43,14.53-3.05c5.63-1.95,11.27-4.41,15.43-8.68,3.4-3.49,5.58-7.98,7.27-12.55,8.98-24.34,4.35-53.23-11.8-73.54-5.69-7.16-12.85-13.38-21.37-16.68s-18.52-3.43-26.57.92c-2.22,1.2-4.35,2.83-5.38,5.13-.86,1.93-.86,4.12-.68,6.22.48,5.8,2.16,11.5,4.91,16.63-1.96-3.68-3.93-7.37-5.89-11.05-.44-.83-.94-1.72-1.8-2.12-.71-.33-1.53-.27-2.31-.18-4.26.5-8.46,1.52-12.48,3.04-3.01,1.14-5.95,2.58-8.41,4.67-3.31,2.83-5.56,6.69-7.4,10.64-7.24,15.55-8.89,33.3-6.86,50.33.77,6.49,2.09,13,4.97,18.86,1.69,3.44,3.97,6.69,7.12,8.87,3.08,2.14,6.81,3.13,10.51,3.78,5.25.91,10.61,1.2,15.92.84,2.9-.2,5.84-.6,8.47-1.86s4.9-3.49,5.61-6.31"/>
      <path d="m170.42,103.66c1.47,4.02,3.16,7.93,5.84,11.31s6.39,5.68,10.48,6.89c8.8,2.6,18.2-.02,26.46-3.25,4.12-1.61,8.02-3.56,11.48-6.36s5.87-6.27,7.75-10.09c3.62-7.36,5.63-15.47,6.56-23.59,1.8-15.78-1.31-32.12-8.61-46.21S210.29,4.29,194,.85c-8.26-1.74-17.77-.97-24.92,3.87-1.77,1.2-3.42,2.67-4.49,4.55-1.16,2.03-1.55,4.4-1.52,6.71.06,4.52,1.04,9.16,2.56,13.4.79,2.21,1.75,4.37,2.84,6.44l5.18-3.03c-1.62-3.05-3.25-6.09-4.87-9.14-.71-1.33-1.34-2.75-2.35-3.88-1.22-1.37-2.97-1.98-4.78-1.87-6.38.38-13.17,2.4-18.81,5.39s-9.37,7.79-12.11,13.36-4.84,11.62-6.23,17.75c-2.84,12.49-2.97,25.43-1.21,38.08.9,6.44,2.48,12.88,5.58,18.64s7.62,9.78,13.78,11.73c3.59,1.14,7.41,1.66,11.15,2s7.39.38,11.08.1c6.83-.52,14.49-2.96,16.53-10.34,1.03-3.73-4.76-5.32-5.79-1.6-1.2,4.33-6.48,5.61-10.75,5.93-5.96.45-12.07.15-17.9-1.16-2.58-.58-5.06-1.4-7.27-2.89-1.96-1.32-3.5-3.22-4.73-5.21-2.97-4.8-4.49-10.36-5.44-15.88-1.88-10.81-2.02-22.22-.19-33.05.93-5.52,2.39-10.96,4.42-16.18,1.84-4.74,4.14-9.72,7.92-13.24,4.34-4.05,10.86-5.88,16.55-6.95.75-.14,1.51-.27,2.27-.38.36-.05,1.46-.3,1.74-.14-.43-.25.14.48.19.57.38.66.72,1.34,1.08,2.01,1.66,3.12,3.32,6.23,4.98,9.35.76,1.43,2.75,1.87,4.1,1.08,1.45-.85,1.84-2.67,1.08-4.1-1.87-3.55-3.19-7.33-3.96-11.26-.58-2.96-1.49-7.29.46-9.86s5.88-4.05,9.01-4.86c3.55-.91,7.3-1.07,10.94-.59,14.52,1.89,25.98,13.51,33.1,25.57s10.69,26.42,10.23,40.53c-.23,7.04-1.46,13.94-3.72,20.65-1.18,3.48-2.6,6.87-4.63,9.95s-4.68,5.36-7.79,7.16-6.8,3.22-10.37,4.39c-3.95,1.3-8.01,2.37-12.19,2.42-3.43.05-6.92-.61-9.92-2.34s-5.04-4.56-6.58-7.64c-.79-1.58-1.43-3.21-2.03-4.86-.56-1.52-2.04-2.55-3.69-2.1-1.47.4-2.65,2.16-2.1,3.69h0Z"/>
    </g>
  </g>
  <g id="E">
    <g>
      <path class="cls-1" d="m61.23,72.5c-2.87-8.57-1.7-16.02,1.52-24.47,1.47-3.85,3.26-7.61,5.75-10.89,2.61-3.44,5.94-6.27,9.39-8.87,4.39-3.32,9.03-6.31,13.86-8.95,10.13-5.53,22.47-10.71,34.15-8,6.42,1.49,12.25,5.4,16.07,10.77s5.6,12.16,4.9,18.71c-.23,2.19-.76,4.42-2.1,6.16-1.24,1.62-3.07,2.67-4.88,3.61-3.72,1.94-3.75,1.13-7.73,2.48,3.01-.82,6.91.47,8.78,3.09,1.16,1.63,1.01,3.81-.08,5.5-1.85,2.88-5.13,3.84-8.24,4.7,5.17.04,6.44.66,11.48,1.83s9.95,3.61,13.17,7.66c4.75,5.97,5.04,14.7,1.98,21.69-3.06,6.99-8.99,12.39-15.55,16.29-16.07,9.54-36.83,10.67-53.85,2.94-3.67-1.67-7.2-3.74-10.19-6.44-2.76-2.49-5.03-5.49-7.04-8.62-3.52-5.48-6.28-11.44-8.2-17.66-1.04-3.37-1.58-8.39-3.18-11.54"/>
      <path d="m64.12,71.71c-1.64-5-1.95-10.12-.82-15.27s3.09-10.34,5.82-14.86,6.31-7.71,10.29-10.71c4.39-3.32,9.03-6.31,13.86-8.95,8.82-4.82,18.9-9.3,29.2-8.16,8.97.99,17.07,7.31,20.08,15.84.89,2.53,1.42,5.16,1.47,7.85.05,2.39-.03,5.25-1.37,7.33-.62.96-1.51,1.63-2.47,2.22-.58.36-1.19.68-1.79,1-.31.16-.63.32-.94.47-.16.08-.33.15-.49.23.18-.08.18-.08,0,0-1.8.67-3.75.88-5.58,1.49-3.65,1.21-2.18,6.71,1.6,5.79,1.6-.39,5.98.42,5.78,2.93-.23,2.93-4.47,3.9-6.92,4.58-3.26.91-2.6,5.86.8,5.89.79,0,1.57.02,2.36.07.3.02.61.04.91.07-.03,0,1.08.12.51.04,1.14.15,2.26.42,3.37.69,2.72.66,5.52,1.2,8.09,2.32,4.81,2.07,8.5,5.78,9.81,10.83,2.78,10.69-4.48,20.6-13.15,26.39-9.48,6.34-20.9,9.38-32.27,9.08-5.63-.15-11.18-1.14-16.52-2.95s-10.91-4.6-15.05-8.72c-4.85-4.82-8.4-11.2-11.05-17.45-1.29-3.05-2.37-6.2-3.09-9.44s-1.3-6.35-2.73-9.29c-.71-1.46-2.78-1.85-4.1-1.08-1.49.87-1.79,2.64-1.08,4.1,1.1,2.24,1.57,5.39,2.17,8.04.71,3.15,1.79,6.21,3.02,9.19,2.68,6.48,6.14,12.77,10.72,18.11,8.53,9.95,22.54,14.51,35.27,15.36s25.65-2.22,36.4-8.93c10.47-6.54,19.43-17.57,17.85-30.63-.9-7.41-5.08-13.61-11.72-17.11-3.27-1.72-6.74-2.58-10.3-3.46-3.12-.77-6.21-1.21-9.43-1.25l.8,5.89c2.69-.75,5.36-1.62,7.59-3.37s4.02-4.72,3.7-7.75c-.64-6.16-7.83-9.3-13.34-7.95l1.6,5.79c1.79-.59,3.68-.8,5.45-1.44,2.63-.95,5.29-2.37,7.38-4.24,4.47-4.01,4.67-11.03,3.91-16.56-1.56-11.23-9.4-20.59-20.02-24.4-11.36-4.08-23.66-.34-34.06,4.66-5.4,2.59-10.59,5.62-15.51,9.03s-9.53,6.84-13.18,11.35c-4.27,5.28-7.06,11.79-8.85,18.3-1.88,6.84-1.94,13.89.28,20.66.5,1.54,2.07,2.54,3.69,2.1,1.51-.41,2.6-2.14,2.1-3.69h0Z"/>
    </g>
  </g>
  <g id="G-2" data-name="G">
    <g>
      <path class="cls-1" d="m56.22,86.79c-6.64-6.24-4.71-18.37,2.56-23.86s17.81-5.01,25.87-.76c10.65,5.62,17.7,17.46,17.57,29.49-.13,12.04-7.44,23.72-18.2,29.11-8.37,4.19-18.06,4.63-27.42,4.72-8.01.08-16.27-.08-23.59-3.32-10.64-4.7-20.8-13.82-25-24.67-5.25-13.56-6.55-30.9-3-45s15.4-26.19,28.25-33c5.65-3,11.87-4.78,18.12-6.14,6.98-1.52,14.37-2.53,21.19-.37,8.78,2.77,17.71,10.73,20.44,19.52,3.49,11.24,1.45,21.88-6,31"/>
      <path d="m58.34,84.67c-.97-.94-1.33-1.38-1.99-2.62-.49-.93-.83-1.99-1.08-3.38-.11-.61-.04-.27-.03-.13-.04-.31-.06-.63-.08-.94-.03-.63-.03-1.27,0-1.9.07-1.09.28-2.22.72-3.61.36-1.11.6-1.67,1.26-2.82.75-1.29,1.21-1.91,2.27-2.95,1.83-1.79,4.26-3.03,6.82-3.73,11.28-3.06,22.99,3.89,28.71,13.61,6.05,10.26,5.42,22.62-1.38,32.41-3.22,4.63-7.85,8.42-13.17,10.53-6.46,2.56-13.43,3.14-20.31,3.31s-14.41.39-21.31-1.42c-5.96-1.56-11.56-4.89-16.24-8.86s-8.71-8.78-11.24-14.41-4.01-12.26-4.74-18.47c-1.5-12.7-.6-26.46,6.35-37.48s17.38-18.81,29.09-22.79c3.54-1.2,7.17-2.12,10.82-2.89s7.14-1.33,10.79-1.36c6.4-.05,12.2,2.1,17.2,6.04s8.39,8.71,9.86,14.59,1.26,12.33-1.09,18.11c-1.15,2.83-2.81,5.52-4.73,7.9-1.02,1.26-1.23,3.01,0,4.24,1.05,1.05,3.22,1.27,4.24,0,4.76-5.89,7.88-12.72,8.45-20.33.53-7.07-1.12-14.75-5.09-20.67s-9.56-10.58-15.98-13.33c-7.68-3.3-15.87-2.84-23.91-1.24s-15.56,3.82-22.52,7.79c-5.98,3.41-11.53,7.78-16.16,12.88s-8.59,11.23-10.88,17.91S-.06,63.07,0,70.28s1.11,15.18,3.22,22.43,5.1,13.11,9.86,18.55,10.4,9.63,16.67,12.7c7.24,3.54,15.06,4.47,23.04,4.54s15.78-.04,23.41-1.8c7.02-1.62,13.52-4.97,18.56-10.17,9.57-9.87,13.14-24.71,8.12-37.64-4.99-12.87-17.07-22.99-31.28-22.99-6.67,0-13.67,2.49-17.9,7.85-3.85,4.88-5.52,11.49-3.99,17.58.72,2.87,2.25,5.53,4.38,7.58,2.78,2.68,7.03-1.56,4.24-4.24h0Z"/>
    </g>
  </g>
</svg>